<svg width="40" height="39" viewBox="0 0 40 39" fill="none" xmlns="http://www.w3.org/2000/svg">
<g clip-path="url(#clip0_18_37)">
<path d="M22.0662 1.82051C22.0662 0.00761697 18.93 -0.67793 17.5508 0.830273C4.9036 14.6174 22.8835 15.2344 22.8835 21.9375C22.8835 24.6492 19.9107 26.8506 16.2534 26.8125C12.6574 26.7744 9.79699 24.5426 9.79699 21.8689V15.3562C9.79699 13.7033 7.08979 12.9035 5.56763 14.0994C2.84 16.2398 0 19.9037 0 24.375C0 32.4416 8.79584 39 19.6144 39C30.433 39 39.2288 32.4416 39.2288 24.375C39.2288 11.4029 22.0662 9.67383 22.0662 1.82051Z" fill="#B87333"/>
</g>
<defs>
<clipPath id="clip0_18_37">
<rect width="39.2288" height="39" fill="white"/>
</clipPath>
</defs>
</svg>
